<?xml version="1.0" standalone="no"?>
<!DOCTYPE svg PUBLIC "-//W3C//DTD SVG 20010904//EN"
 "http://www.w3.org/TR/2001/REC-SVG-20010904/DTD/svg10.dtd">
<svg version="1.0" xmlns="http://www.w3.org/2000/svg"
 width="8000.000000pt" height="6874.000000pt" viewBox="0 0 8000.000000 6874.000000"
 preserveAspectRatio="xMidYMid meet">

<g transform="translate(0.000000,6874.000000) scale(0.100000,-0.100000)"
fill="#5a5775" stroke="none">
<path d="M24720 67974 c-19 -2 -91 -9 -160 -14 -236 -21 -471 -60 -715 -121
-932 -233 -1735 -703 -2415 -1415 -47 -49 -87 -91 -90 -94 -23 -21 -159 -183
-221 -260 -239 -302 -445 -627 -633 -1000 -533 -1057 -748 -2257 -620 -3460
140 -1323 414 -2426 864 -3480 80 -188 253 -561 270 -585 4 -5 34 -62 66 -125
339 -669 902 -1475 1409 -2020 29 -30 85 -91 125 -135 41 -44 127 -134 191
-200 380 -392 499 -543 499 -633 0 -114 -236 -702 -710 -1767 -299 -672 -417
-942 -577 -1325 -617 -1474 -1022 -2714 -1169 -3579 -47 -276 -84 -620 -109
-1016 -40 -622 -14 -1765 60 -2640 34 -404 78 -822 121 -1150 13 -104 26 -206
29 -225 17 -129 72 -504 105 -713 l40 -248 -50 -127 c-225 -579 -565 -1218
-888 -1672 -508 -713 -1025 -1117 -1576 -1231 -145 -30 -400 -31 -541 -2 -305
64 -602 211 -885 438 -153 122 -204 171 -416 391 -272 283 -469 473 -654 631
-770 655 -1635 1128 -2609 1424 -406 123 -897 228 -1331 284 -69 8 -138 17
-155 20 -16 2 -91 9 -165 15 -74 6 -180 15 -235 21 -169 17 -837 23 -1135 10
-859 -36 -1759 -181 -2655 -427 -1296 -356 -2154 -938 -2767 -1879 -226 -346
-402 -699 -698 -1400 -169 -399 -284 -655 -361 -800 -316 -602 -508 -1066
-724 -1750 -151 -479 -262 -925 -481 -1925 -110 -503 -153 -614 -719 -1855
-73 -159 -185 -411 -250 -560 -206 -469 -264 -567 -657 -1097 -289 -392 -428
-601 -563 -846 -205 -375 -335 -771 -374 -1147 -7 -60 -16 -140 -22 -177 -12
-87 -12 -271 1 -356 5 -37 14 -116 20 -177 38 -372 150 -795 299 -1125 403
-888 1216 -1532 2317 -1835 468 -129 824 -172 950 -116 64 28 81 55 64 105
-16 48 -120 142 -217 195 -43 24 -121 66 -173 95 l-95 51 0 541 c1 522 1 541
20 566 11 14 74 93 141 174 240 296 485 633 918 1264 593 866 733 1046 1090
1404 505 507 1246 1147 2031 1752 323 249 555 421 875 647 997 705 1959 1248
2650 1495 320 115 458 145 680 146 173 1 224 -6 365 -51 344 -108 618 -341
1231 -1043 468 -537 693 -772 984 -1033 835 -748 1792 -1224 2975 -1481 313
-68 754 -137 1025 -161 41 -4 91 -8 110 -11 19 -2 136 -11 260 -20 401 -28
995 -21 1360 17 52 5 118 12 145 15 153 16 501 72 670 109 1041 225 1942 667
2680 1317 486 428 899 940 1165 1446 24 45 46 82 50 82 13 0 270 -752 420
-1230 255 -814 458 -1634 520 -2100 41 -311 130 -812 205 -1155 342 -1565 898
-2936 1663 -4100 308 -470 677 -940 1009 -1287 l64 -67 -178 -358 c-798 -1604
-1272 -2949 -1354 -3845 -17 -186 -7 -476 20 -608 26 -123 67 -231 121 -317
l38 -61 -28 -114 c-72 -284 -178 -855 -220 -1188 -6 -47 -13 -96 -15 -110 -2
-14 -9 -70 -14 -125 -94 -905 -38 -1546 169 -1932 l38 -71 -191 -174 c-385
-349 -538 -488 -782 -708 -137 -124 -271 -246 -299 -271 -239 -216 -390 -352
-436 -393 -30 -27 -224 -200 -430 -385 -206 -186 -415 -373 -465 -417 -49 -45
-162 -145 -250 -224 -214 -191 -620 -551 -830 -735 -93 -82 -242 -213 -330
-290 -474 -416 -899 -772 -1017 -851 -265 -177 -913 -348 -2003 -528 -333 -55
-947 -141 -1225 -171 -19 -2 -75 -9 -125 -14 -409 -46 -682 -70 -890 -76 -531
-18 -912 -109 -1575 -380 -617 -252 -532 -231 -1560 -390 -91 -14 -174 -27
-185 -29 -11 -2 -54 -9 -95 -16 -131 -21 -501 -91 -615 -116 -457 -103 -757
-198 -1104 -349 -201 -88 -388 -148 -569 -185 -283 -57 -368 -64 -717 -64
-176 0 -352 3 -392 7 -349 32 -635 33 -728 2 -40 -14 -99 -17 -305 -20 -361
-4 -618 -40 -917 -131 -700 -212 -1246 -684 -1557 -1346 -119 -253 -141 -351
-92 -397 50 -47 144 -37 281 31 140 69 250 167 346 306 308 451 618 654 1093
712 142 18 398 4 547 -29 125 -28 118 -110 -31 -356 -144 -238 -193 -363 -193
-490 -1 -218 130 -325 583 -474 224 -74 382 -101 588 -101 259 -1 388 31 931
229 590 215 724 252 981 273 133 11 391 2 515 -17 272 -42 679 -68 915 -60
574 20 1114 130 1791 366 566 197 674 233 823 273 351 96 520 120 856 120 173
0 283 -5 375 -17 582 -76 538 -71 820 -93 261 -20 904 -14 1135 10 463 50 861
126 1495 286 416 105 650 145 1060 182 181 17 740 16 910 0 356 -35 570 -66
816 -117 381 -80 660 -168 1174 -370 628 -247 1232 -421 1590 -460 33 -4 89
-11 125 -16 111 -17 634 -23 761 -10 475 51 755 201 841 451 31 91 31 252 -1
365 -26 97 -23 113 46 186 143 153 464 289 803 340 113 16 373 17 485 0 488
-71 876 -296 1258 -730 140 -158 216 -202 263 -150 18 20 18 23 1 87 -45 169
-183 465 -298 637 -217 324 -476 547 -844 725 -182 88 -311 136 -499 184 -241
62 -308 71 -561 71 -202 0 -243 -3 -334 -23 -153 -34 -265 -72 -580 -198 -634
-255 -822 -276 -1581 -173 -761 103 -1422 261 -1735 414 -165 81 -245 161
-245 245 0 67 27 95 305 320 293 237 1699 1408 2475 2060 69 58 240 202 380
320 348 292 492 414 1180 994 52 44 136 114 185 156 423 357 714 603 899 760
120 102 226 191 236 198 16 11 26 8 82 -31 146 -100 391 -199 582 -235 138
-26 419 -22 546 7 344 80 629 253 920 559 l117 124 99 -18 c73 -13 148 -17
289 -17 469 2 906 139 1317 413 172 114 272 196 432 350 320 310 592 688 836
1161 l64 126 91 27 c786 238 1797 797 2618 1449 74 59 90 68 101 56 7 -8 66
-84 132 -169 168 -218 214 -276 459 -570 611 -733 1500 -1663 2200 -2301 838
-763 1732 -1453 2553 -1968 72 -46 132 -90 132 -97 0 -18 -253 -790 -350
-1069 -21 -60 -72 -207 -113 -325 -369 -1060 -699 -1846 -915 -2174 -123 -186
-255 -257 -507 -272 -173 -11 -408 33 -775 145 -91 28 -230 70 -310 95 -80 24
-199 57 -265 72 -112 27 -133 29 -330 29 -195 -1 -217 -3 -310 -27 -132 -35
-228 -75 -480 -200 -115 -57 -241 -114 -280 -127 -127 -41 -245 -47 -601 -27
-719 39 -1008 7 -1449 -161 -378 -145 -634 -164 -1105 -82 -413 71 -419 72
-600 73 -195 1 -286 -13 -420 -65 -122 -47 -198 -97 -301 -199 -82 -82 -102
-108 -142 -190 -63 -129 -77 -191 -84 -355 l-6 -140 -87 -92 c-220 -231 -384
-573 -444 -928 -26 -152 -31 -223 -30 -425 2 -288 38 -519 129 -835 87 -300
104 -330 219 -399 112 -67 183 -58 226 29 l25 50 1 365 c0 288 4 388 17 473
21 136 52 277 83 389 53 184 179 478 206 478 6 0 30 -11 52 -24 70 -41 326
-152 426 -184 180 -59 229 -67 430 -67 223 1 265 7 699 116 471 118 519 121
813 45 215 -55 374 -71 608 -63 276 11 490 38 715 92 157 37 281 79 560 190
424 169 518 190 815 182 173 -5 214 -10 365 -42 598 -127 682 -140 890 -138
188 1 266 14 690 108 651 145 759 159 1220 159 269 1 388 -3 515 -17 474 -51
958 -176 1392 -361 264 -112 510 -186 1163 -351 700 -176 1343 -319 1581 -350
142 -19 439 -21 553 -5 243 34 421 108 537 224 85 85 120 154 136 266 10 69 9
96 -6 190 l-18 109 21 29 c44 63 194 139 341 175 108 27 192 37 311 38 242 3
454 -48 684 -161 252 -125 478 -321 689 -598 81 -107 160 -148 190 -100 19 31
-57 282 -143 472 -188 416 -544 737 -1002 904 -178 65 -486 143 -619 156 -30
3 -102 11 -160 17 -100 11 -415 7 -580 -8 -36 -3 -177 -6 -315 -7 -265 -1
-385 9 -905 75 -1100 140 -1807 378 -1940 655 -35 72 -37 128 -6 236 132 461
437 1450 646 2093 32 99 91 280 130 402 l71 222 57 -20 c297 -103 840 -250
1122 -304 131 -25 317 -30 436 -11 440 67 792 363 1033 866 241 505 327 1170
246 1905 -9 77 -20 167 -25 200 -16 96 -12 335 6 423 53 258 215 422 513 522
109 37 343 83 526 105 497 58 691 88 880 134 329 81 558 197 745 377 152 146
242 293 334 539 136 368 294 536 546 581 128 22 265 1 436 -67 432 -174 1001
-674 1549 -1359 55 -69 212 -260 350 -425 633 -758 877 -1050 980 -1171 60
-72 178 -211 260 -309 83 -98 229 -272 325 -385 96 -114 245 -289 330 -390
327 -385 1243 -1458 1500 -1755 99 -114 237 -274 353 -407 28 -34 90 -104 137
-158 290 -330 420 -478 455 -520 69 -82 611 -694 849 -959 61 -69 154 -172
206 -231 254 -284 445 -495 541 -600 58 -63 208 -227 334 -365 552 -605 1460
-1558 2021 -2120 947 -949 1342 -1305 1734 -1564 386 -255 675 -332 875 -235
111 55 208 191 250 354 105 401 53 1092 -146 1965 -58 254 -159 643 -213 820
-9 28 -16 51 -16 53 0 1 64 -52 143 -118 2111 -1792 3940 -3142 4952 -3655
366 -186 631 -275 776 -262 349 31 278 629 -209 1757 -293 679 -742 1572
-1277 2535 -229 412 -213 382 -343 610 -162 280 -168 291 -152 279 126 -96
743 -540 1160 -835 954 -676 2082 -1412 2965 -1937 1562 -928 2678 -1380 3181
-1289 108 20 184 59 244 124 69 75 92 141 98 280 29 684 -819 2169 -2761 4830
-285 391 -688 930 -1206 1613 -410 541 -393 519 -1191 1565 -1179 1546 -1628
2168 -1872 2590 -396 684 -822 1599 -1250 2685 -190 479 -352 912 -500 1325
-146 409 -337 975 -330 975 4 0 51 -67 104 -148 472 -718 1450 -2140 2115
-3075 2514 -3534 4416 -5791 5458 -6477 214 -140 405 -222 522 -222 83 1 126
22 161 81 26 44 27 52 26 176 0 105 -5 150 -26 235 -207 831 -1116 2563 -2705
5155 -282 460 -571 927 -753 1215 -355 563 -694 1097 -818 1290 -808 1253
-1172 1809 -1918 2928 -254 380 -461 692 -459 692 2 0 65 -75 141 -167 1079
-1304 2209 -2476 2999 -3108 597 -478 1052 -722 1385 -744 229 -14 376 53 455
209 35 68 46 135 45 261 0 129 -4 161 -37 309 -140 637 -700 1696 -1646 3115
-495 742 -1302 1858 -1826 2525 -46 59 -68 79 344 -328 199 -197 488 -481 645
-632 156 -151 300 -291 320 -310 20 -19 114 -109 210 -200 96 -91 220 -208
275 -260 55 -52 206 -191 335 -309 129 -118 262 -239 296 -270 439 -404 1067
-938 1496 -1274 963 -751 1567 -1032 1753 -815 54 64 69 128 62 268 -8 167
-45 315 -148 591 -258 690 -874 1798 -1794 3224 -323 501 -1025 1536 -1345
1985 -53 74 -100 142 -105 149 -5 8 104 -88 241 -215 1176 -1082 2257 -1898
3015 -2278 197 -99 237 -116 418 -177 507 -172 822 -60 919 326 32 124 37 178
34 345 -7 386 -106 754 -341 1273 -278 615 -761 1412 -1369 2261 -63 88 -141
197 -172 241 -140 195 -589 786 -795 1045 -28 36 -123 155 -211 265 -495 623
-986 1209 -1674 1995 -227 260 -936 1053 -1036 1160 -28 30 -78 85 -110 121
-33 36 -167 181 -299 323 -132 142 -276 298 -320 346 -372 404 -1132 1195
-1696 1765 l-347 350 -6 145 c-46 1105 -662 2366 -1857 3795 -360 431 -601
691 -1079 1167 -467 465 -798 769 -1247 1145 -95 79 -173 146 -173 148 0 3 11
39 25 82 56 170 78 330 76 542 -2 173 -20 328 -57 476 -158 635 -550 1278
-1243 2038 -143 156 -574 580 -761 747 -409 367 -1011 847 -1370 1095 -47 32
-87 60 -89 61 -2 2 23 34 55 71 101 119 167 238 218 395 120 369 83 850 -106
1357 -135 364 -213 486 -473 747 -402 403 -1029 854 -1990 1431 -527 317
-1318 754 -1941 1072 l-181 93 -12 80 c-86 559 -723 1300 -1851 2149 -975 735
-2385 1623 -4125 2599 -121 68 -249 140 -285 160 -707 396 -1569 863 -2510
1360 -102 54 -309 163 -460 242 -237 126 -559 294 -1035 543 -66 34 -192 100
-280 145 -88 45 -209 108 -270 140 -99 52 -463 239 -1105 567 -124 64 -315
162 -425 218 -223 114 -866 439 -1890 955 -374 189 -684 346 -690 350 -5 4
-266 137 -580 295 -313 158 -624 316 -690 350 -66 34 -196 102 -290 150 -93
48 -233 120 -310 160 -161 83 -459 236 -820 420 -137 70 -299 153 -360 185
-60 32 -218 113 -350 180 -132 67 -253 130 -270 140 -16 9 -115 61 -220 115
-104 54 -194 101 -200 105 -5 4 -53 29 -105 56 -86 43 -642 336 -830 436 -41
22 -284 151 -540 285 -496 262 -827 437 -1165 618 -115 62 -291 155 -390 208
-151 79 -508 270 -800 427 -385 207 -790 422 -1270 675 -529 278 -1157 599
-1805 923 -716 358 -1024 508 -1500 727 -2336 1077 -4017 1621 -5375 1741
-168 15 -596 26 -675 18z"/>
</g>
</svg>
