<svg width="3449" height="511" viewBox="0 0 3449 511" fill="none" xmlns="http://www.w3.org/2000/svg">
<path d="M38.5304 504.398C20.367 504.398 11.2853 504.398 5.64264 498.755C0 493.112 0 484.031 0 465.867V38.5304C0 20.367 0 11.2853 5.64264 5.64264C11.2853 0 20.367 0 38.5304 0H313.169C331.332 0 340.414 0 346.056 5.64264C351.699 11.2853 351.699 20.367 351.699 38.5304V60.4774C351.699 78.6408 351.699 87.7225 346.056 93.3651C340.414 99.0077 331.332 99.0077 313.169 99.0077H160.443C142.279 99.0077 133.198 99.0077 127.555 104.65C121.913 110.293 121.913 119.375 121.913 137.538V163.918C121.913 182.082 121.913 191.163 127.555 196.806C133.198 202.449 142.28 202.449 160.443 202.449H295.19C313.353 202.449 322.435 202.449 328.078 208.091C333.72 213.734 333.72 222.816 333.72 240.979V263.172C333.72 281.336 333.72 290.417 328.078 296.06C322.435 301.703 313.353 301.703 295.19 301.703H160.443C142.279 301.703 133.198 301.703 127.555 307.345C121.913 312.988 121.913 322.07 121.913 340.233V366.859C121.913 385.023 121.913 394.105 127.555 399.747C133.198 405.39 142.28 405.39 160.443 405.39H313.169C331.332 405.39 340.414 405.39 346.056 411.033C351.699 416.675 351.699 425.757 351.699 443.92V465.867C351.699 484.031 351.699 493.112 346.056 498.755C340.414 504.398 331.332 504.398 313.169 504.398H38.5304Z" fill="white"/>
<path d="M611.021 504.398H463.111C444.948 504.398 435.866 504.398 430.223 498.755C424.581 493.112 424.581 484.031 424.581 465.867V38.5304C424.581 20.367 424.581 11.2853 430.223 5.64264C435.866 0 444.948 0 463.111 0H610.774C662.166 0 706.416 10.0978 743.524 30.2934C780.795 50.3248 809.529 79.2226 829.724 116.987C849.92 154.587 860.018 199.575 860.018 251.953C860.018 304.494 849.92 349.647 829.724 387.411C809.693 425.175 781.041 454.155 743.77 474.35C706.498 494.382 662.248 504.398 611.021 504.398ZM546.493 361.934C546.493 380.097 546.493 389.179 552.136 394.822C557.778 400.464 566.86 400.464 585.024 400.464H606.341C634.582 400.464 658.472 395.703 678.011 386.179C697.714 376.492 712.573 360.812 722.589 339.138C732.769 317.301 737.859 288.239 737.859 251.953C737.859 215.666 732.769 186.768 722.589 165.259C712.409 143.586 697.386 127.988 677.518 118.465C657.815 108.777 633.515 103.933 604.617 103.933H585.024C566.86 103.933 557.778 103.933 552.136 109.576C546.493 115.219 546.493 124.3 546.493 142.464V361.934Z" fill="white"/>
<path d="M1232.88 38.5304C1232.88 20.367 1232.88 11.2853 1238.52 5.64264C1244.16 0 1253.24 0 1271.41 0H1316.01C1334.18 0 1343.26 0 1348.9 5.64264C1354.54 11.2853 1354.54 20.367 1354.54 38.5304V325.346C1354.54 362.946 1345.6 395.703 1327.7 423.615C1309.8 451.364 1284.84 472.873 1252.83 488.143C1220.81 503.248 1183.62 510.801 1141.26 510.801C1098.4 510.801 1060.97 503.248 1028.95 488.143C996.934 472.873 972.059 451.364 954.326 423.615C936.593 395.703 927.727 362.946 927.727 325.346V38.5304C927.727 20.367 927.727 11.2853 933.37 5.64264C939.012 0 948.094 0 966.258 0H1011.11C1029.27 0 1038.35 0 1044 5.64264C1049.64 11.2853 1049.64 20.367 1049.64 38.5304V314.756C1049.64 332.16 1053.42 347.676 1060.97 361.304C1068.69 374.932 1079.44 385.605 1093.23 393.322C1107.02 401.039 1123.03 404.897 1141.26 404.897C1159.48 404.897 1175.41 401.039 1189.04 393.322C1202.83 385.605 1213.59 374.932 1221.3 361.304C1229.02 347.676 1232.88 332.16 1232.88 314.756V38.5304Z" fill="white"/>
<path d="M1545.06 477.387C1540.98 490.409 1538.94 496.919 1533.85 500.658C1528.76 504.398 1521.93 504.398 1508.29 504.398H1459.23C1434.75 504.398 1422.52 504.398 1416.75 496.368C1410.99 488.339 1414.9 476.743 1422.72 453.549L1566.91 26.2124C1571.18 13.5586 1573.31 7.23176 1578.35 3.61588C1583.38 0 1590.06 0 1603.42 0H1710.39C1723.75 0 1730.42 0 1735.46 3.61588C1740.5 7.23176 1742.63 13.5586 1746.9 26.2124L1891.08 453.549C1898.91 476.743 1902.82 488.339 1897.06 496.368C1891.29 504.398 1879.05 504.398 1854.58 504.398H1805.5C1791.87 504.398 1785.05 504.398 1779.96 500.662C1774.87 496.926 1772.83 490.42 1768.74 477.409L1659.34 128.964C1658.99 127.845 1657.95 127.085 1656.78 127.085C1655.61 127.085 1654.57 127.846 1654.22 128.965L1545.06 477.387ZM1519.11 344.42C1519.11 326.257 1519.11 317.175 1524.75 311.532C1530.39 305.89 1539.47 305.89 1557.64 305.89H1754.45C1772.61 305.89 1781.69 305.89 1787.34 311.532C1792.98 317.175 1792.98 326.257 1792.98 344.42V359.963C1792.98 378.127 1792.98 387.209 1787.34 392.851C1781.69 398.494 1772.61 398.494 1754.45 398.494H1557.64C1539.47 398.494 1530.39 398.494 1524.75 392.851C1519.11 387.209 1519.11 378.127 1519.11 359.963V344.42Z" fill="white"/>
<path d="M1997.61 504.398C1979.45 504.398 1970.37 504.398 1964.72 498.755C1959.08 493.112 1959.08 484.031 1959.08 465.867V38.5304C1959.08 20.367 1959.08 11.2853 1964.72 5.64264C1970.37 0 1979.45 0 1997.61 0H2167.44C2205.2 0 2237.8 6.81397 2265.22 20.4419C2292.8 33.9056 2314.06 53.2803 2329 78.5658C2343.95 103.687 2351.42 133.488 2351.42 167.968C2351.42 202.941 2343.78 232.66 2328.51 257.125C2313.24 281.425 2291.57 299.979 2263.49 312.786C2235.41 325.428 2202.17 331.75 2163.75 331.75H2070.51C2052.35 331.75 2043.27 331.75 2037.62 326.107C2031.98 320.465 2031.98 311.383 2031.98 293.219V274.228C2031.98 256.065 2031.98 246.983 2037.62 241.34C2043.27 235.698 2052.35 235.698 2070.51 235.698H2141.09C2159.48 235.698 2174.83 233.317 2187.14 228.555C2199.62 223.629 2209.06 216.241 2215.47 206.389C2221.87 196.374 2225.07 183.567 2225.07 167.968C2225.07 152.37 2221.87 139.481 2215.47 129.301C2209.06 118.957 2199.62 111.24 2187.14 106.15C2174.66 100.896 2159.31 98.2689 2141.09 98.2689H2119.52C2101.36 98.2689 2092.28 98.2689 2086.64 103.912C2080.99 109.554 2080.99 118.636 2080.99 136.799V465.867C2080.99 484.031 2080.99 493.112 2075.35 498.755C2069.71 504.398 2060.63 504.398 2042.46 504.398H1997.61ZM2220.17 273.872C2231.32 273.872 2236.9 273.872 2241.45 276.573C2245.99 279.275 2248.66 284.172 2254 293.967L2337.62 447.432C2351.46 472.839 2358.38 485.543 2352.78 494.97C2347.18 504.398 2332.72 504.398 2303.78 504.398H2258.76C2247.51 504.398 2241.88 504.398 2237.31 501.656C2232.73 498.913 2230.08 493.95 2224.78 484.022L2142.8 330.557C2129.28 305.246 2122.52 292.59 2128.13 283.231C2133.74 273.872 2148.09 273.872 2176.78 273.872H2220.17Z" fill="white"/>
<path d="M2601.26 504.398H2453.35C2435.18 504.398 2426.1 504.398 2420.46 498.755C2414.82 493.112 2414.82 484.031 2414.82 465.867V38.5304C2414.82 20.367 2414.82 11.2853 2420.46 5.64264C2426.1 0 2435.18 0 2453.35 0H2601.01C2652.4 0 2696.65 10.0978 2733.76 30.2934C2771.03 50.3248 2799.76 79.2226 2819.96 116.987C2840.15 154.587 2850.25 199.575 2850.25 251.953C2850.25 304.494 2840.15 349.647 2819.96 387.411C2799.93 425.175 2771.28 454.155 2734 474.35C2696.73 494.382 2652.48 504.398 2601.26 504.398ZM2536.73 361.934C2536.73 380.097 2536.73 389.179 2542.37 394.822C2548.01 400.464 2557.1 400.464 2575.26 400.464H2596.58C2624.82 400.464 2648.71 395.703 2668.25 386.179C2687.95 376.492 2702.81 360.812 2712.82 339.138C2723 317.301 2728.09 288.239 2728.09 251.953C2728.09 215.666 2723 186.768 2712.82 165.259C2702.64 143.586 2687.62 127.988 2667.75 118.465C2648.05 108.777 2623.75 103.933 2594.85 103.933H2575.26C2557.1 103.933 2548.01 103.933 2542.37 109.576C2536.73 115.219 2536.73 124.3 2536.73 142.464V361.934Z" fill="white"/>
<path d="M2906.46 257.628V211.819C2930.07 211.819 2946.42 207.157 2955.51 197.833C2964.73 188.509 2969.34 173.712 2969.34 153.442V115.132C2969.34 87.9706 2973.35 66.6199 2981.35 51.0797C2989.49 35.5396 3000.55 24.121 3014.52 16.8239C3028.63 9.52678 3044.91 4.93232 3063.36 3.04048C3081.81 1.01349 3101.42 0 3122.17 0V72.7683C3105.89 72.7683 3093.68 74.7278 3085.54 78.6466C3077.54 82.5654 3072.18 88.5112 3069.47 96.4839C3066.75 104.457 3065.4 114.524 3065.4 126.686V178.576C3065.4 188.846 3063.29 198.711 3059.09 208.17C3054.88 217.629 3047.15 226.075 3035.89 233.507C3024.63 240.94 3008.55 246.818 2987.66 251.142C2966.9 255.466 2939.84 257.628 2906.46 257.628ZM3122.17 511C3101.42 511 3081.81 509.986 3063.36 507.96C3044.91 506.068 3028.63 501.473 3014.52 494.176C3000.55 486.879 2989.49 475.46 2981.35 459.92C2973.35 444.38 2969.34 423.029 2969.34 395.868V357.761C2969.34 337.356 2964.73 322.559 2955.51 313.37C2946.42 304.046 2930.07 299.384 2906.46 299.384V253.372C2939.84 253.372 2966.9 255.601 2987.66 260.061C3008.55 264.385 3024.63 270.263 3035.89 277.695C3047.15 284.992 3054.88 293.371 3059.09 302.83C3063.29 312.289 3065.4 322.154 3065.4 332.424V384.314C3065.4 396.476 3066.75 406.543 3069.47 414.516C3072.18 422.489 3077.54 428.435 3085.54 432.353C3093.68 436.272 3105.89 438.232 3122.17 438.232V511ZM2906.46 299.384V211.819H2987.66V299.384H2906.46Z" fill="#8844EE"/>
<path d="M3448.43 255.601C3448.43 305.6 3441.65 351.68 3428.08 393.841C3414.52 435.867 3393.35 474.92 3364.59 511H3268.13C3279.12 497.622 3289.23 481.339 3298.45 462.15C3307.81 442.961 3315.89 421.948 3322.67 399.111C3329.59 376.274 3334.95 352.626 3338.75 328.167C3342.68 303.708 3344.65 279.52 3344.65 255.601C3344.65 223.575 3341.32 191.346 3334.68 158.915C3328.03 126.348 3318.94 96.2137 3307.41 68.5117C3295.88 40.6746 3282.78 17.8374 3268.13 0H3364.59C3393.35 36.0801 3414.52 75.2007 3428.08 117.362C3441.65 159.388 3448.43 205.468 3448.43 255.601Z" fill="#8844EE"/>
</svg>
