<svg xmlns="http://www.w3.org/2000/svg" data-name="Layer 1" viewBox="0 0 95 118.75" x="0px" y="0px"
    fill="#FFFFFF">
    <defs>
        <style>.cls-1{fill-rule:evenodd;}</style>
    </defs>
    <title>a</title>
    <path class="cls-1"
        d="M66.047,46.44a7.161,7.161,0,0,0,.9-3.846,1.054,1.054,0,1,0-2.106.1,5.1,5.1,0,0,1-.811,3.015,7.618,7.618,0,0,0-6.9,2.027A1.055,1.055,0,0,0,58.6,49.244a5.535,5.535,0,0,1,8.145.428,1.055,1.055,0,1,0,1.628-1.342,7.634,7.634,0,0,0-2.327-1.89Zm-17.72-3.889a5.215,5.215,0,0,0-3.673,3.935,1.055,1.055,0,0,0,2.064.439,3.116,3.116,0,1,1,6.012,1.612,1.055,1.055,0,0,0,2.007.651,5.227,5.227,0,0,0-6.41-6.637Zm-1.813,7.132a1.055,1.055,0,0,1-.251,2.095,3.3,3.3,0,0,0-3.015,5.29,1.054,1.054,0,1,1-1.673,1.284,5.414,5.414,0,0,1,1.122-7.68,2.946,2.946,0,0,0-1.762-1.21,1.055,1.055,0,1,1,.492-2.052,5.056,5.056,0,0,1,3.208,2.38,5.438,5.438,0,0,1,1.879-.107ZM35.972,46.132a5.089,5.089,0,0,0-5.21.07,1.055,1.055,0,0,0,1.1,1.8,2.981,2.981,0,0,1,4.54,2.621A1.056,1.056,0,0,0,37.433,51.7h.028a1.055,1.055,0,0,0,1.055-1.026,5.089,5.089,0,0,0-2.544-4.546Zm39.061-1.353a8.3,8.3,0,0,0-1.544-2.026,1.055,1.055,0,0,0-1.459,1.523,6.191,6.191,0,1,1-8.753,8.755,1.055,1.055,0,1,0-1.524,1.458,8.285,8.285,0,0,0,3.624,2.21,9.168,9.168,0,0,1-8.257,5.86,9.065,9.065,0,0,1-6.682-2.634A11,11,0,0,0,52.2,54.749a1.055,1.055,0,1,0-2.1-.164,8.908,8.908,0,0,1-1.849,4.775h0a8.89,8.89,0,0,1-15.8-6.826,1.055,1.055,0,1,0-2.085-.323,11.007,11.007,0,0,0-.031,3.143,7.277,7.277,0,0,1-6.479-10.872,1.055,1.055,0,1,0-1.835-1.042,9.415,9.415,0,0,0-.956,2.411,3.622,3.622,0,0,1-1.238-4.825H75.177a3.613,3.613,0,0,1-.144,3.753ZM24.013,25.4a1.51,1.51,0,1,0-1.51,1.51,1.511,1.511,0,0,0,1.51-1.51Zm8.956-6.757a1.51,1.51,0,1,0-1.51,1.51,1.511,1.511,0,0,0,1.51-1.51ZM47.5,15.4a1.51,1.51,0,1,0-1.51-1.509A1.512,1.512,0,0,0,47.5,15.4Zm14.531,3.243a1.51,1.51,0,1,0,1.509-1.509,1.512,1.512,0,0,0-1.509,1.509ZM70.986,25.4a1.51,1.51,0,1,0,1.51-1.509,1.513,1.513,0,0,0-1.51,1.509ZM75.95,46.948c-.028.026-.058.049-.085.074a8.3,8.3,0,0,1-6.027,9.757,8.188,8.188,0,0,1-2.088.268c-.084,0-.169,0-.254-.006a11.28,11.28,0,0,1-10.312,7.626c-.113,0-.225.006-.337.006a11.167,11.167,0,0,1-7.738-3.095,11,11,0,0,1-18.287-4.133c-.208.015-.416.024-.622.024a9.386,9.386,0,0,1-9.4-9.394,5.718,5.718,0,0,1-2.384-8.738,1.052,1.052,0,0,1,.842-.42H34.683V33.3l-9.49-5.48a3.612,3.612,0,1,1,.931-2.413,3.656,3.656,0,0,1-.039.493l10.181,5.877a1.053,1.053,0,0,1,.527.914v6.231h2.222V26.422l-5.391-4.884a3.628,3.628,0,1,1,1.252-1.713l5.9,5.348a1.048,1.048,0,0,1,.346.782V38.917h1.607V25.955a1.055,1.055,0,0,1,2.11,0V38.917h1.6V17.354a3.619,3.619,0,1,1,2.11,0V38.917h1.6V25.955a1.055,1.055,0,1,1,2.109,0V38.917h1.605V25.955a1.054,1.054,0,0,1,.348-.782l5.9-5.347a3.634,3.634,0,1,1,1.252,1.712l-5.393,4.884v12.5h2.224V32.686a1.053,1.053,0,0,1,.527-.914L68.915,25.9A3.617,3.617,0,1,1,72.5,29.02a3.6,3.6,0,0,1-2.689-1.2L60.316,33.3v5.622h15.43a1.054,1.054,0,0,1,.842.42,5.724,5.724,0,0,1-.638,7.611ZM2.5,46.883V32.57a1.055,1.055,0,0,1,.874-1.039L13.4,29.78a1.055,1.055,0,0,1,.362,2.078l-9.149,1.6V46l9.149,1.6a1.048,1.048,0,0,1,.838.771,33.825,33.825,0,0,0,3.53,8.511,1.052,1.052,0,0,1-.048,1.139l-5.342,7.6,8.868,8.867,7.6-5.34a1.052,1.052,0,0,1,1.139-.048,33.875,33.875,0,0,0,8.512,3.529,1.05,1.05,0,0,1,.771.839l1.6,9.15H53.77l1.6-9.15a1.048,1.048,0,0,1,.77-.839A33.841,33.841,0,0,0,64.652,69.1a1.054,1.054,0,0,1,1.14.048l7.6,5.34,8.869-8.867-5.342-7.6a1.052,1.052,0,0,1-.048-1.139,33.862,33.862,0,0,0,3.53-8.511,1.049,1.049,0,0,1,.838-.771l9.15-1.6V33.456l-9.15-1.6a1.055,1.055,0,1,1,.364-2.078l10.021,1.751A1.055,1.055,0,0,1,92.5,32.57V46.883a1.056,1.056,0,0,1-.874,1.039l-9.362,1.636a35.887,35.887,0,0,1-3.233,7.794L84.5,65.134a1.057,1.057,0,0,1-.118,1.352L74.259,76.608a1.053,1.053,0,0,1-1.351.116l-7.781-5.465a36.041,36.041,0,0,1-7.795,3.232L55.7,83.853a1.054,1.054,0,0,1-1.038.874H40.344a1.055,1.055,0,0,1-1.039-.874l-1.637-9.362a35.99,35.99,0,0,1-7.8-3.232l-7.78,5.465a1.051,1.051,0,0,1-1.351-.118L10.62,66.486a1.056,1.056,0,0,1-.119-1.352l5.468-7.782a35.887,35.887,0,0,1-3.233-7.794L3.374,47.922A1.056,1.056,0,0,1,2.5,46.883Z" />
</svg>
