<svg xmlns="http://www.w3.org/2000/svg" version="1.1" viewBox="-5.0 -10.0 110.0 135.0"
    fill="#FFFFFF">
    <path
        d="m84.801 72.398v-39.301c0-7.1016-5.8008-12.898-12.898-12.898h-0.39844v-3.5c0-1.1016-0.89844-2-2-2-1.1016 0-2 0.89844-2 2v3.5h-35.102v-3.5c0-1.1016-0.89844-2-2-2-1.1016 0-2 0.89844-2 2v3.5h-0.39844c-7.1016 0-12.898 5.8008-12.898 12.898v39.301c0 7.1016 5.8008 12.898 12.898 12.898h43.801c7.1016 0 12.898-5.8008 12.898-12.898zm-56.699-48.199h0.39844v3c0 1.1016 0.89844 2 2 2s2-0.89844 2-2v-3h35.102v3c0 1.1016 0.89844 2 2 2 1.1016 0 2-0.89844 2-2v-3h0.39844c4.8984 0 8.8984 4 8.8984 8.8984v3.3984l-61.699 0.003906v-3.3984c0-4.8984 4-8.8984 8.8984-8.8984zm43.797 57.102h-43.797c-4.8984 0-8.8984-4-8.8984-8.8984v-32h61.5v32c0 4.8984-4 8.8984-8.8984 8.8984z" />
</svg>
