<svg xmlns="http://www.w3.org/2000/svg" xmlns:xlink="http://www.w3.org/1999/xlink" version="1.1" x="0px" y="0px" viewBox="0 0 32 40" style="enable-background:new 0 0 32 32;" xml:space="preserve"><path d="M28.6,11.3V4.8c0-0.8-0.6-1.4-1.4-1.4h-6.5c-1.2,0-2.4,0.4-3.4,1c-0.5,0.3-0.9,0.7-1.3,1.2c-1.1-1.3-2.8-2.2-4.7-2.2H4.8  C4,3.4,3.4,4,3.4,4.8v6.5c0,1.9,0.9,3.5,2.2,4.7c-1.3,1.1-2.2,2.8-2.2,4.7v6.5c0,0.8,0.6,1.4,1.4,1.4h6.5c0.8,0,1.4-0.6,1.4-1.4  c0-0.8-0.6-1.4-1.4-1.4H6.2v-5.1c0-1.8,1.4-3.2,3.2-3.2h5.1v5.1c0,3.4,2.7,6.1,6.1,6.1h6.5c0.8,0,1.4-0.6,1.4-1.4v-6.5  c0-1.9-0.9-3.5-2.2-4.7C27.8,14.9,28.6,13.2,28.6,11.3z M9.5,14.6c-1.8,0-3.2-1.4-3.2-3.2V6.2h5.1c1.8,0,3.2,1.4,3.2,3.2v5.1H9.5z   M25.8,20.7v5.1h-5.1c-1.8,0-3.2-1.4-3.2-3.2v-5.1h5.1C24.3,17.4,25.8,18.9,25.8,20.7z M17.4,14.6V9.5c0-1.1,0.5-2.1,1.4-2.7  c0.5-0.4,1.2-0.6,1.8-0.6h5.1v5.1c0,1.8-1.4,3.2-3.2,3.2H17.4z"/><text x="0" y="47" fill="#000000" font-size="5px" font-weight="bold" font-family="'Helvetica Neue', Helvetica, Arial-Unicode, Arial, Sans-serif">Created by Mas Dhimas</text><text x="0" y="52" fill="#000000" font-size="5px" font-weight="bold" font-family="'Helvetica Neue', Helvetica, Arial-Unicode, Arial, Sans-serif">from the Noun Project</text></svg>