<svg xmlns="http://www.w3.org/2000/svg" xmlns:xlink="http://www.w3.org/1999/xlink" version="1.1"
    x="0px" y="0px" viewBox="0 0 32 40" style="enable-background:new 0 0 32 32;"
    xml:space="preserve" fill="#FFFFFF">
    <path d="M4,29c0.55,0,1-0.45,1-1c0-3.86,3.14-7,7-7h9c0.55,0,1-0.45,1-1s-0.45-1-1-1h-9c-4.96,0-9,4.04-9,9C3,28.55,3.45,29,4,29z"/>
    <path d="M16,17c3.86,0,7-3.14,7-7s-3.14-7-7-7s-7,3.14-7,7S12.14,17,16,17z M16,5c2.76,0,5,2.24,5,5s-2.24,5-5,5s-5-2.24-5-5  S13.24,5,16,5z"/>
    <path d="M21.29,24.29c-0.39,0.39-0.39,1.02,0,1.41l2,2C23.49,27.9,23.74,28,24,28s0.51-0.1,0.71-0.29l4-4  c0.39-0.39,0.39-1.02,0-1.41s-1.02-0.39-1.41,0L24,25.59l-1.29-1.29C22.32,23.9,21.68,23.9,21.29,24.29z"/>
</svg>
